<svg width="200" height="200" viewBox="0 0 200 200" fill="none" xmlns="http://www.w3.org/2000/svg">
<g clip-path="url(#clip0_149_7)">
<path d="M168 0H32C14.3269 0 0 14.3269 0 32V168C0 185.673 14.3269 200 32 200H168C185.673 200 200 185.673 200 168V32C200 14.3269 185.673 0 168 0Z" fill="#EEEEEE"/>
<path fill-rule="evenodd" clip-rule="evenodd" d="M100 42C115.383 42 130.135 48.1106 141.012 58.9878C151.889 69.865 158 84.6174 158 100C158 132.033 132.033 158 100 158C67.9674 158 42 132.033 42 100C42 67.9674 67.9674 42 100 42ZM81.4034 53.054C81.3896 52.752 80.7512 53.0018 80.7512 53.0018L80.1712 53.3462C80.1622 53.2196 80.1622 53.0924 80.1712 52.9656C79.5106 52.9528 78.8672 53.178 78.3588 53.6C78.0324 53.89 77.9782 54.6512 78.0324 54.6512H78.4132C78.6002 54.6412 78.7878 54.6412 78.975 54.6512C78.975 54.7782 78.9206 54.7962 78.7212 54.8868C78.395 55.0936 78.032 55.2352 77.6518 55.3038C77.5612 55.195 77.5976 54.9774 77.4162 54.9774C77.0724 55.1674 76.745 55.3856 76.4376 55.63C76.308 55.67 76.174 55.6942 76.0388 55.7024C76.0472 55.6668 76.0472 55.6296 76.0388 55.5938C76.2398 55.5032 76.4286 55.3874 76.6006 55.2494C77.2894 54.7782 78.1412 53.89 77.8694 53.6544H77.7788C77.6518 53.6362 77.4344 53.5638 75.9662 54.6876L75.6762 54.9412C75.4872 54.6312 75.2338 54.3656 74.9332 54.1618L75.027 54.0526L75.0962 53.9262V53.7812C74.8828 53.7802 74.6764 53.8576 74.5162 53.9988C74.2836 53.8992 74.0404 53.8262 73.7912 53.7812V53.5276L73.601 53.506L73.4106 53.5276H73.2474C72.7702 53.542 72.3036 53.6726 71.8882 53.9082C71.3262 54.0168 70.42 54.2706 70.42 54.2706C70.1448 54.4862 69.9114 54.7504 69.7312 55.05L69.8128 55.0634L69.8944 55.05L69.8024 55.1452C69.6928 55.2302 69.55 55.2946 69.55 55.4306C69.8886 55.3502 70.197 55.174 70.4382 54.9232L70.7644 54.6876H71L70.71 55.34C70.4436 55.4426 70.1932 55.583 69.9668 55.7568C69.7294 55.9594 69.5052 56.1774 69.2962 56.4094C69.058 56.3188 68.8076 56.2638 68.5532 56.2462L68.5934 56.0368L68.5532 55.92C68.4624 55.7932 67.9006 56.1374 67.3932 56.4818C66.9772 56.6482 66.6096 56.9162 66.3238 57.2612C66.0766 57.48 65.852 57.723 65.6532 57.9862L65.407 58.0342L65.1638 58.095C65.1936 58.0366 65.23 57.9818 65.2726 57.9318L64.8012 58.0588L64.4024 57.8232L63.7862 58.1132C64.2538 57.561 64.6496 56.952 64.9644 56.3006L65.2182 55.9924C66.1788 55.3038 66.1788 55.1588 66.1788 55.0318L66.7226 54.5426C66.2332 54.7782 65.9794 54.8868 64.1668 56.355L63.9856 56.5182L63.8588 56.6232L63.895 56.5906L63.3512 57.0618H63.2606L63.0612 57.2432L62.5718 57.66L62.4064 57.814L62.2274 57.9682L62.0644 58.1312L61.7926 58.3668L61.4482 58.6932L61.1218 59.0012L61.0132 59.11C60.1974 59.8894 59.5268 60.6506 58.82 61.3576C58.1132 62.0644 57.66 62.59 57.0074 63.3694L57.3192 62.996L57.4856 62.8414L58.0406 62.2818C50.7906 74.5888 44.5194 85.1738 46.7488 94.2362C47.0546 93.6012 47.2274 92.9104 47.2562 92.2062L47.2526 92.2098L47.2292 93.0616C47.0678 98.5226 47.2884 99.2728 48.64 101.753L48.8512 102.139C50.4462 102.048 51.7512 107.25 51.7512 107.25C52.0956 109.28 54.2344 110.259 54.6876 112.379C55.1406 114.5 53.8176 116.312 54.2888 118.342C54.3204 118.514 54.3628 118.684 54.4156 118.85C56.5 123.689 59.9982 127.623 62.0824 132.408C64.3844 137.773 67.4112 143.228 73.7732 146.708L74.0812 146.871L74.346 146.927L74.6068 146.998C74.518 146.788 74.3814 146.602 74.2082 146.454C71.9476 145.296 70.4266 143.072 70.1662 140.546C70.9818 140.056 70.9818 140.056 69.9668 138.606C70.2842 138.672 70.6048 138.721 70.9276 138.751C71.145 137.754 71.145 137.754 71.2538 137.555L71.6344 137.229C71.5312 136.268 71.3554 135.317 71.1088 134.383C71.9606 133.713 73.4288 134.311 73.9724 133.006L75.0782 125.284C74.7156 121.333 66.94 118.632 66.94 118.632C67.2844 117.817 67.9188 116.258 60.2518 109.189C59.4544 109.28 59.4544 109.28 57.6418 107.975L57.2612 108.247C56.9848 108.078 56.7294 107.877 56.5 107.649C55.1406 108.573 55.1406 108.573 54.6876 108.573C53.0744 107.123 53.8356 104.676 52.6576 103.317C51.4794 101.958 52.9294 100.036 51.6426 98.695C51.0806 98.7856 51.0806 98.7856 50.4644 100.127L50.12 100C48.9188 97.3292 49.1934 94.2258 50.845 91.8074C51.4068 92.0612 51.4432 92.1156 51.7332 92.8588C52.0574 92.8472 52.3666 92.7184 52.6032 92.4962C53.6362 92.7682 53.6362 92.7682 53.9262 97.1182H54.4156C54.4882 96.955 54.6876 96.7556 54.6876 96.6106C55.4126 95.1606 54.6876 93.3482 55.3038 92.0432C55.92 90.7382 57.805 90.7018 58.1312 89.125C58.6568 86.7324 61.3938 86.2612 62.5718 84.3038C62.815 84.532 63.045 84.7742 63.2606 85.0288C63.8044 85.0106 66.5232 84.1588 66.2694 82.6182C65.958 82.619 65.6522 82.7002 65.3812 82.8538C64.62 81.3676 65.4356 80.2438 66.0156 80.2438C67.1828 80.0942 68.3236 79.7832 69.405 79.3194C69.621 76.7442 69.621 74.1552 69.405 71.58C68.8068 71.7612 68.2994 72.16 67.6832 72.2868C68.0678 71.1934 68.3056 70.0536 68.39 68.8976C65.7076 67.3932 62.6624 73.2656 61.4844 75.8394C61.2488 71.2176 61.2488 71.2176 61.0494 71.0362C61.7926 68.6618 63.9494 67.5926 65.5624 66.0156L65.6532 66.1062C65.2362 66.4326 65.1638 67.0488 65.2362 67.1756C65.3088 67.3026 65.3088 67.3024 65.8162 67.52C65.8526 67.6288 66.0338 67.52 66.0338 67.52C66.312 67.3834 66.5686 67.2062 66.795 66.9944L67.1356 67.111C67.3668 67.1742 67.6056 67.2082 67.8462 67.2118L68.0304 67.2406C68.2856 67.2772 68.564 67.3206 68.68 67.5382C68.97 68.1726 68.4988 68.8974 68.8432 69.5318C68.9432 69.705 69.087 69.8486 69.26 69.9488L69.4242 69.8978C69.6738 69.7534 69.8248 69.3658 70.2026 69.5318L70.3984 69.5214C70.9696 69.338 71.3806 67.8698 71.3806 67.4294C71.3444 67.2118 71.5256 66.6862 71.8338 66.6862C72.1782 66.9762 71.5076 67.6832 71.9606 67.6832C72.495 67.631 72.9694 67.3192 73.2294 66.8494C73.5374 66.3962 73.5374 66.1788 73.5374 66.1788C73.5374 65.8526 73.2294 65.4356 73.2294 65.3632C73.2294 65.2906 73.0118 65.1094 72.8306 64.9826C72.6494 64.8556 72.7762 64.6018 73.0118 64.2212C73.3744 63.5688 73.4106 63.2968 72.9032 62.2456C72.8306 62.0826 72.8306 62.0826 73.1568 61.3576C73.1568 61.3576 73.5012 60.2882 73.5012 60.1794C73.4416 59.8908 73.2552 59.6446 72.9938 59.5088C72.9774 59.4744 72.9774 59.4344 72.9938 59.4H73.1388C74.2468 59.3906 75.2528 58.7504 75.7306 57.7506C75.9278 57.591 76.1402 57.4514 76.365 57.3338C76.8906 57.0438 77.6518 56.7718 77.9962 56.5724C78.3406 56.3732 78.6126 55.9744 79.0476 55.9744C79.6308 55.9224 80.2074 55.813 80.7694 55.6482C81.4582 55.3762 81.9838 54.9594 82.5818 54.6694C82.8356 54.4518 83.1438 54.5788 83.3976 54.4518C83.5274 54.388 83.649 54.309 83.76 54.2162C84.1044 53.9444 84.1044 53.8356 83.9774 53.7268C83.8506 53.6182 83.9774 53.5456 83.9774 53.4006L83.7266 53.392C83.561 53.3706 83.4002 53.3186 83.2526 53.2374H82.455C82.3462 53.02 81.9294 53.31 81.9294 53.2374C81.9294 53.165 82.1468 53.0018 81.9294 53.0018C81.7118 53.0018 81.5668 53.2194 81.3674 53.2194L81.4034 53.054ZM117.744 54.0712H116.983L116.98 54.1498C117 54.329 117.228 54.4994 118.052 55.0862C117.762 55.5032 119.104 55.9924 119.104 55.9924C119.124 55.9462 119.124 55.8938 119.104 55.8474C120.663 56.1918 120.663 56.1918 120.663 55.9744C121.061 56.0468 121.261 56.5 121.641 56.5H122.004L122.529 57.1162C122.4 57.4172 122.249 57.708 122.076 57.9862C121.895 58.24 121.496 57.9138 121.387 58.24C121.061 59.0556 121.061 59.0556 121.061 59.0556L120.994 59.119C120.873 59.3026 121.018 59.7308 121.732 60.27L121.986 60.5238L121.533 60.3788C121.333 60.705 120.989 60.5056 120.717 60.6144C120.572 60.995 120.971 61.3394 121.895 62.155C121.533 62.1188 121.097 61.865 120.807 61.9918C120.517 62.1188 120.807 62.4632 120.807 62.6988C120.046 62.0644 119.847 61.9376 119.72 61.9376C119.623 60.3786 118.309 59.1766 116.748 59.2188C116.537 59.2328 116.33 59.2756 116.131 59.3456C115.968 58.9288 115.279 58.3668 115.08 58.6206C114.731 59.0984 114.329 59.5362 113.884 59.9256C113.05 60.6868 113.05 60.6868 113.05 61.7382C113.033 62.0326 113.137 62.3212 113.34 62.5356C113.176 62.6358 113.044 62.7804 112.959 62.9526L112.954 63.2028C112.987 63.5312 113.174 63.8312 113.467 64.0038C114.844 64.9644 115.116 65.055 115.479 64.9644C115.373 65.2558 115.312 65.5612 115.297 65.8706C115.315 66.073 115.351 66.2734 115.406 66.4688L115.238 66.3392C114.977 66.1642 114.808 66.1968 114.627 66.4688L114.768 66.9074L114.609 66.505C114.478 66.737 114.406 66.7834 114.261 66.7926L114.137 66.795C113.684 65.8344 113.811 65.9432 113.684 65.8344C113.557 65.7256 112.996 65.5624 112.869 65.8344C112.869 65.8344 112.651 66.4688 113.666 66.9038C113.594 67.0488 113.594 67.0488 113.267 67.375C113.249 67.3932 113.104 67.5382 112.742 67.1938C112.379 66.8494 111.763 67.1938 111.763 67.1938C111.31 67.6288 112.651 68.1906 112.071 68.4988C112.071 68.4988 111.092 68.9338 110.875 68.3718C110.605 67.253 109.753 66.3664 108.646 66.0518C107.974 66.1052 107.302 65.9468 106.724 65.5988C106.405 65.2266 105.926 65.0308 105.438 65.0732C104.969 65.0696 104.502 65.112 104.042 65.2C103.734 65.3088 103.643 65.6894 103.335 65.78C102.121 65.8524 100.381 68.9518 99.8006 69.9668C99.0212 71.4168 99.0212 71.4168 98.6588 71.7794C98.1524 72.2402 97.6798 72.7368 97.245 73.2656C97.245 73.3018 96.7194 76.1476 97.245 76.6006C97.4308 76.8114 97.6982 76.932 97.979 76.932C98.26 76.932 98.5274 76.8114 98.7132 76.6006C99.13 76.2926 99.1118 75.9482 99.6012 76.6006C100.091 77.2532 99.855 78.2862 100.743 78.7394C100.934 78.8232 101.151 78.8232 101.341 78.7394C102.103 78.6126 103.154 76.5462 103.154 75.6762C103.099 72.0512 103.099 72.0512 103.752 72.0512C103.612 72.8366 103.612 73.6404 103.752 74.4256C103.861 74.6612 103.933 74.6974 105.166 75.35C104.995 75.7288 105.036 76.1696 105.274 76.51C105.039 76.9994 104.404 77.0718 104.205 77.5794C104.057 78.0914 103.863 78.589 103.625 79.0656V79.1562C103.522 79.3656 103.314 79.504 103.081 79.5188L102.707 79.5898C102.226 79.7522 101.805 80.135 101.269 80.135L100.859 80.1234C99.4932 80.0546 99.5998 79.703 99.7824 79.1382C99.7824 79.12 100.254 77.38 98.9488 77.5612C98.4232 77.6156 97.97 78.7394 98.2782 79.5732C98.4232 80.0262 98.3506 80.5882 97.8976 80.5882L97.533 80.6822C97.0622 80.8482 96.6582 81.1714 96.3932 81.6032C95.8676 82.5638 95.8674 82.5638 95.7588 82.5638H95.7044L95.5232 82.6544C95.1062 82.9082 94.9432 83.47 94.6168 83.7056C94.2906 83.9412 93.8376 83.6874 93.5112 83.9412C93.3766 84.0708 93.293 84.2446 93.2756 84.4306C92.3694 84.3038 92.315 84.3038 92.2244 84.4306C92.1288 84.8102 92.231 85.2122 92.4962 85.5C93.413 86.2938 93.6676 87.6118 93.1126 88.69C89.7956 88.4362 89.7956 88.4362 89.5962 88.69C89.3314 90.253 89.2888 91.8456 89.4694 93.4206C90.3938 94.345 90.3938 94.345 91.7894 94.0188L92.2688 93.9422C94.3474 93.4526 94.281 91.1756 95.4144 89.9406C96.3024 88.98 96.4474 89.0162 96.7918 89.1612C97.1362 89.3062 97.1362 89.3062 98.7856 88.3274C98.8578 88.5174 98.949 88.6996 99.0574 88.8712C99.855 89.85 101.069 90.285 101.958 91.1368C102.465 91.6806 101.704 92.4418 102.574 92.9494C103.444 93.4568 103.915 91.3362 103.915 91.3362C104.006 89.4332 101.106 89.9226 101.214 87.9832C101.776 87.7294 101.776 87.7294 103.879 89.7956C103.944 89.8636 104.005 89.9362 104.06 90.0132C104.332 90.43 104.241 90.9012 104.513 91.3362C104.785 91.7712 105.8 91.5176 105.637 92.3694C105.474 93.2212 105.474 93.2212 105.637 93.3482C105.985 93.5104 106.397 93.4538 106.688 93.2032C107.304 92.6776 106.706 91.735 107.304 91.1912C108.809 91.6806 108.102 94.5988 109.914 94.2726C110.096 94.2322 110.26 94.1374 110.386 94.0006C110.748 93.5838 110.893 93.475 112.833 93.5838C113.757 94.6532 112.742 96.8282 112.198 98.0244C111.781 97.8974 111.618 97.5168 111.038 97.4988C110.458 97.4806 110.531 98.4232 109.896 98.2962C109.418 98.1102 108.919 97.9824 108.41 97.9156C108.064 97.94 107.718 97.8646 107.413 97.6982C105.963 96.8462 104.712 96.1574 104.549 97.6982C104.477 98.4774 104.042 98.7132 103.299 98.4774C103.19 98.4774 100.036 96.7556 99.6738 96.4112C99.3112 96.0668 99.2568 95.8132 99.5468 94.9612C99.8006 94.4174 99.9638 93.9462 99.5468 93.9462C98.0708 93.901 96.5932 93.9556 95.1244 94.1094C94.2362 94.3088 93.4568 94.9794 92.6594 95.2332C91.8618 95.4868 91.1732 94.2906 90.3576 95.0156L88.8712 96.8282C88.0194 98.0968 88.3456 99.9638 86.7688 100.852C86.08 101.233 85.9532 101.305 84.4124 103.897C84.05 104.423 84.2856 104.984 84.195 105.709C84.1044 106.434 84.2856 107.051 84.195 107.866C84.1044 108.682 83.5606 109.516 83.5426 110.204C83.5244 110.893 83.5244 112.343 84.05 112.706C85.1556 113.449 85.1556 113.449 85.4274 114.119C85.7718 115.134 85.8082 115.261 85.8988 115.279C85.9894 115.298 88.255 117.944 89.5238 118.198H89.7594C90.1944 118.179 90.3938 117.726 90.9194 117.708C91.445 117.69 91.88 118.143 92.4238 118.016L94.6532 117.11C94.9968 116.904 95.4108 116.851 95.795 116.965C96.3568 117.164 96.2482 117.744 96.8644 118.125C97.4806 118.506 98.0968 117.926 98.6768 118.234C98.8514 118.311 98.988 118.455 99.0574 118.632C99.1482 118.651 99.3294 120.952 99.0574 121.188C98.7694 121.38 98.6094 121.714 98.6406 122.058C98.8944 123.979 100.58 125.085 101.196 126.789C102.012 128.964 98.4956 130.939 100.562 133.024C101.307 134.127 101.847 135.355 102.157 136.649L103.299 140.654C103.533 141.024 103.949 141.239 104.386 141.216C105.784 141.126 107.166 140.864 108.501 140.437C113.104 136.286 113.104 133.441 113.104 133.314V132.861C113.811 132.244 114.482 132.027 115.37 131.211C116.258 130.396 116.331 130.233 116.856 128.583C117.382 126.934 115.352 125.828 115.896 124.161L116.693 122.058C117.62 120.958 118.652 119.95 119.774 119.049C120.105 118.803 120.377 118.488 120.572 118.125C121.32 116.596 121.974 115.022 122.529 113.413H122.62C122.765 113.104 122.946 112.778 123.091 112.452C123.171 112.293 123.22 112.121 123.236 111.944C123.231 111.777 123.181 111.614 123.091 111.473C122.765 111.201 122.421 111.237 121.786 111.618C120.866 112.272 119.693 112.46 118.614 112.126C118.216 111.672 118.288 111.092 117.962 110.549C117.636 110.005 116.838 110.023 116.548 109.407C116.529 109.293 116.529 109.177 116.548 109.062C116.439 108.319 115.569 107.975 115.569 107.25C115.422 106.504 115.165 105.783 114.808 105.111C114.409 103.625 113.467 102.356 112.996 100.852C112.977 100.798 112.832 100.236 113.358 100.236C114.017 100.506 114.457 101.137 114.482 101.849C114.521 102.161 114.646 102.456 114.844 102.701C115.513 104.076 116.308 105.387 117.219 106.616C117.429 106.839 117.617 107.082 117.781 107.341C117.998 107.696 118.163 108.08 118.27 108.483C118.463 109.448 118.845 110.366 119.394 111.183C120.562 110.75 121.657 110.139 122.638 109.371L122.964 109.171L123.091 109.062C124.056 108.402 124.943 107.636 125.738 106.779L126.734 105.347C126.898 105.021 126.825 104.622 127.042 104.296C127.317 103.93 127.525 103.519 127.659 103.081C127.688 102.916 127.649 102.746 127.55 102.61C127.405 102.429 127.351 102.592 127.024 102.266C126.698 101.939 126.535 101.504 126.191 101.196C125.23 100.272 124.922 100.381 124.777 100.381C124.251 100.58 124.106 101.432 123.689 101.504C123.272 101.577 123.127 101.359 122.747 100.834C121.986 99.7462 121.967 99.7282 121.75 99.565C121.215 99.222 120.898 98.6236 120.916 97.9882C121.007 97.7706 121.152 97.6076 121.406 97.7706C121.487 97.8348 121.555 97.915 121.605 98.0062C121.853 98.4274 122.186 98.7918 122.584 99.0756C122.867 99.2562 123.172 99.4022 123.49 99.5106C123.947 99.7072 124.465 99.7072 124.922 99.5106C125.737 99.3294 125.937 100.217 126.553 100.381C126.977 100.493 127.407 100.584 127.84 100.653C127.936 100.662 128.034 100.662 128.13 100.653C128.42 100.598 128.565 100.326 128.837 100.254C129.109 100.181 129.308 100.344 129.58 100.344C129.919 100.192 130.221 99.9692 130.468 99.6918C130.849 100.109 130.976 100.816 131.32 101.124C131.664 101.432 131.664 101.432 132.208 101.305C132.172 102.393 132.281 102.483 133.549 102.392C133.759 104.146 134.11 105.88 134.601 107.576C135.031 108.695 135.534 109.785 136.105 110.839C136.25 111.147 136.377 111.292 136.504 111.31C136.631 111.328 136.903 111.092 136.903 110.929C136.894 110.839 136.894 110.748 136.903 110.658L136.996 110.035L137.047 109.407C137.047 109.371 137.283 106.471 137.392 106.126C137.848 105.153 138.362 104.209 138.932 103.299C139.27 102.341 139.676 101.408 140.147 100.507C140.401 100.109 140.944 100.218 141.216 99.855H141.343C141.651 100.29 142.159 100.526 142.394 101.033C142.635 101.607 142.752 102.224 142.739 102.846C142.718 103.103 142.789 103.36 142.938 103.571C143.101 103.77 143.101 103.77 143.826 102.954C144.093 104.755 144.233 106.572 144.243 108.392C144.261 108.736 144.678 109.842 144.678 110.204L144.841 110.694C144.932 110.966 144.986 111.256 145.149 111.473C145.312 111.691 145.312 111.926 145.312 112.144C145.422 112.376 145.576 112.586 145.766 112.76C145.802 112.796 145.983 112.597 145.983 112.597C146.088 112.317 146.155 112.024 146.182 111.727C146.043 110.487 145.75 109.27 145.312 108.102C144.919 107.334 144.919 106.423 145.312 105.655H145.458C145.838 106.706 146.11 106.471 146.219 106.706C146.327 106.942 146.273 107.268 146.581 107.395C147.207 106.52 147.611 105.506 147.759 104.441C147.796 103.226 147.796 103.226 146.817 99.8368C146.614 99.287 146.614 98.683 146.817 98.1332C146.998 97.6982 147.669 97.8612 147.832 97.3538C148.003 96.8826 148.215 96.4278 148.466 95.9944C148.507 95.9728 148.549 95.9546 148.593 95.94C149.137 95.7044 149.137 92.6956 149.137 91.9888C149.127 91.4242 149.079 90.861 148.992 90.3032C148.97 90.1744 148.94 90.0472 148.901 89.9226C148.829 89.6868 148.738 89.415 148.611 89.2156C148.484 89.0162 148.502 88.5632 148.484 88.5632C148.466 88.5632 147.832 86.9138 147.723 86.7506C147.459 86.46 147.328 86.0726 147.361 85.6812C147.27 85.4276 147.125 85.1738 147.125 84.9562L147.397 85.5362C147.442 85.1388 147.442 84.7374 147.397 84.34C147.343 84.1768 147.179 83.9774 147.071 84.0862C146.962 84.195 146.962 84.195 146.962 84.195L146.672 84.5756C146.357 84.3506 146.102 84.0518 145.929 83.7056C145.838 83.2344 146.291 82.9444 146.291 82.4912V82.165C146.545 82.7632 146.563 82.8718 146.708 82.7632C146.853 82.6544 146.762 82.2738 146.962 82.3462C147.161 82.4188 147.216 82.5818 147.361 82.9082C147.759 83.773 148.258 84.5882 148.847 85.3368C149.046 85.4818 149.3 84.92 148.684 83.5244C148.43 82.9444 147.959 82.4732 147.759 81.875C147.426 80.876 147.148 79.8594 146.926 78.83C147.089 78.9568 147.198 78.9568 147.198 78.9568C147.002 76.8442 146.385 74.7922 145.385 72.9212C145.294 72.7582 145.186 72.595 144.896 72.1418L144.805 72.2072L144.877 72.1056C144.056 70.849 143.635 70.2224 143.348 70.0986L143.246 70.0756L141.851 68.2632C141.767 67.9608 141.664 67.664 141.542 67.375C141.271 66.7224 140.654 66.2876 140.528 65.5624V65.4356C140.727 65.345 140.727 65.345 140.854 65.0006C140.991 64.9728 141.133 64.9728 141.271 65.0006C141.307 64.9282 141.307 64.9282 139.639 62.155L140.078 62.5466L140.201 62.8438C144.303 68.5686 144.455 68.7806 144.736 68.9826L144.769 69.0062C144.067 67.5892 143.223 66.2472 142.249 65.0006C140.714 62.7298 138.985 60.5952 137.084 58.6206L136.521 57.9856C136.133 57.5814 135.718 57.2068 135.271 56.8082C135.471 56.9532 135.634 57.0982 135.833 57.225C135.617 57.011 135.387 56.8112 135.144 56.6268L135.166 56.645L135.351 56.8082L135.262 56.7372C135.228 56.71 135.198 56.687 135.178 56.6706L135.144 56.645L134.873 56.4276L134.22 55.8838L134.057 55.7568C133.893 55.61 133.717 55.4766 133.531 55.3582L133.955 55.6952L133.602 55.4516C133.478 55.3724 133.351 55.2978 133.221 55.2278L132.824 55.0318H132.716C132.725 55.092 132.725 55.153 132.716 55.2132C133.006 55.5574 133.441 55.7388 133.694 56.0832C133.441 56.0832 133.277 55.7568 133.042 55.7568C133.122 55.8736 133.213 55.9828 133.314 56.0832C133.263 56.1158 133.219 56.159 133.187 56.21L133.332 56.4456C132.933 56.4818 132.643 56.1376 132.262 56.1376C132.299 56.2826 132.462 56.355 132.462 56.5L132.353 56.5544C130.957 56.1556 130.958 56.1556 130.958 56.1556L131.05 56.3072C131.119 56.4026 131.204 56.4862 131.302 56.5544C131.087 56.4008 130.848 56.2844 130.595 56.21L130.396 56.4276C129.634 55.7568 129.308 55.6482 129.199 55.7568C129.415 56.1752 129.797 56.484 130.251 56.6088C130.522 56.645 131.61 57.7868 131.411 57.7506C131.211 57.7144 131.012 57.8776 130.812 57.8776C130.82 57.9134 130.82 57.9504 130.812 57.9862C130.861 58.1014 130.922 58.2108 130.994 58.3124H130.812C130.548 57.9402 130.154 57.6814 129.707 57.5876C129.375 57.2792 128.969 57.061 128.529 56.9532L128.424 56.9888C128.265 57.0038 128.05 56.9168 128.021 57.0618C127.985 57.2432 128.094 57.4062 128.529 57.8232C128.51 57.8874 128.472 57.9444 128.42 57.9862C128.64 58.249 128.89 58.4862 129.163 58.6932L129.025 58.5772L128.384 58.0406C128.311 58.1566 128.436 58.1798 128.312 58.1844L128.166 58.1856C127.822 58.1856 127.514 57.8594 127.224 57.9682C126.934 58.0768 126.68 58.1856 126.39 58.0768H126.263C125.593 57.7324 125.411 57.08 124.614 56.6088C123.816 56.1376 123.943 56.1738 123.671 56.1376C123.399 56.1012 123.273 56.5182 122.983 56.3368C122.554 56.1014 122.148 55.8284 121.768 55.5212C121.313 55.2276 120.8 55.0358 120.264 54.9594V55.2676C119.412 54.9232 118.633 54.3974 117.744 54.0712ZM143.79 69.7312L143.907 70.096C143.996 70.335 144.109 70.565 144.243 70.7826C144.606 71.4894 145.131 71.9788 145.512 72.595C145.711 72.9212 145.838 73.2838 146.056 73.61C146.362 74.0988 146.695 74.5708 147.052 75.0238C147.067 74.9052 147.009 74.6696 146.056 72.8124C145.874 72.4862 145.874 72.4862 145.24 71.4168C145.077 71.1088 144.026 69.5862 143.79 69.7312ZM89.6868 53.9806C89.019 54.0142 88.3812 54.2692 87.8744 54.7056C87.7656 54.2162 87.7656 54.2162 87.7656 54.2162L87.5598 54.3778C87.4284 54.4924 87.309 54.6204 87.2038 54.76C87.1312 54.5606 86.66 54.2162 86.0076 55.4668H85.8988C85.8988 55.2494 86.0438 54.7782 85.8988 54.7782C85.7538 54.7782 85.7538 54.7782 84.8112 55.4126C84.8024 55.3706 84.8024 55.3274 84.8112 55.2856H84.7024V55.1768C84.9562 54.8506 84.9562 54.8506 84.9562 54.7238L84.6232 54.79C84.287 54.834 83.9446 54.812 83.615 54.7238C83.3068 54.905 82.9626 54.7782 82.6544 54.905C82.1738 55.1184 81.7374 55.4196 81.3674 55.7932C80.3706 56.7356 80.3706 56.7356 79.7544 56.7356C78.5218 56.7176 78.25 56.9894 78.1232 57.1162L78.0136 57.2296C77.9502 57.313 77.9066 57.4106 77.8874 57.515C77.8238 57.931 77.6554 58.3238 77.3982 58.6568C77.1806 58.9468 76.945 59.255 77.5794 59.4544H79.0294C79.1642 59.7168 79.2208 60.0126 79.1926 60.3062C78.9788 60.7748 78.803 61.2596 78.6668 61.7562C78.5218 62.2638 77.9238 62.6624 77.8332 62.9888C77.7426 63.315 78.1774 63.3876 78.1774 63.6232L77.9962 63.8588C77.5068 64.04 77.6156 64.4024 77.6156 65.0732C77.09 65.3812 76.8362 65.5806 76.8362 65.9432C75.8406 66.6264 75.1818 67.7004 75.0238 68.8976C75.3862 69.6768 74.8424 70.3656 74.8424 71.1088C74.8424 71.1268 74.8244 72.595 75.4768 72.3594C75.6582 72.2868 75.7124 72.2688 75.8212 72.45C76.22 73.1024 76.5282 73.1024 76.6188 73.1024C77.3618 73.0662 78.2682 71.0182 78.3044 70.9094C78.3406 70.8006 79.9176 68.68 81.0232 68.5712C81.4582 68.6438 81.4582 68.6438 82.6 67.4838C83.3068 66.94 84.3038 67.23 85.1194 66.94L86.3156 66.4144C86.5694 66.2512 86.9862 65.2182 86.8412 64.9644C86.6962 64.7106 86.6962 64.7106 85.9712 64.7106C85.5906 64.6744 85.5906 64.5838 85.5906 64.0218C85.935 63.9132 85.935 63.9132 86.9318 64.1488L87.1494 64.0582C87.1494 63.6594 86.6782 63.17 87.1494 62.8256C87.6206 62.4812 88.0918 63.2968 88.3456 63.17C88.5994 63.0432 88.5994 63.0432 89.4332 61.5026C89.6912 61.1042 89.9822 60.7284 90.3032 60.3788C90.7744 59.69 90.7018 58.7656 91.1188 58.095C91.5356 57.4244 92.5326 57.4968 92.9312 56.79C93.0354 56.5722 93.0354 56.319 92.9312 56.1012C92.2726 55.8344 91.5264 55.895 90.9194 56.2644C90.7018 56.4456 90.7018 56.4456 90.0676 56.6268V56.5362C90.43 56.1012 91.0644 55.9924 91.3906 55.5032C91.4088 55.05 91.4268 54.5606 90.5932 55.05L90.6476 54.9434C90.8254 54.5798 90.9226 54.1454 89.6868 53.9806Z" fill="#BBBBBB"/>
</g>
<defs>
<clipPath id="clip0_149_7">
<rect width="200" height="200" fill="white"/>
</clipPath>
</defs>
</svg>
