<svg width="200" height="200" viewBox="0 0 200 200" fill="none" xmlns="http://www.w3.org/2000/svg">
<g clip-path="url(#clip0_149_2)">
<path d="M164 0H36C16.1177 0 0 16.1177 0 36V164C0 183.882 16.1177 200 36 200H164C183.882 200 200 183.882 200 164V36C200 16.1177 183.882 0 164 0Z" fill="#FEDD00"/>
<path d="M72.6761 37.2165C72.6761 37.2248 136.467 147.667 136.765 148.175C138.747 151.548 141.073 154.49 143.56 156.772C147.129 160.046 151.105 162.024 155.171 162.548C156.013 162.657 156.409 162.682 157.391 162.682C158.255 162.682 158.484 162.672 159.138 162.606C163.19 162.2 167.18 160.347 170.767 157.202C171.425 156.625 172.545 155.527 173.127 154.893C174.871 152.984 176.408 150.9 177.858 148.48C178.051 148.159 183.109 139.405 189.098 129.03L199.988 110.165V73.7054C199.988 45.3715 199.983 37.2429 199.968 37.2281C199.943 37.2033 145.489 37.1984 145.489 37.2248C145.489 37.233 154.328 52.5522 165.131 71.2657L184.774 105.292L184.688 105.435C183.824 106.873 182.69 108.078 181.366 108.963C180.979 109.222 180.676 109.396 180.222 109.624C178.984 110.242 177.699 110.588 176.291 110.682C175.933 110.707 175.026 110.692 174.684 110.658C171.322 110.311 168.436 108.444 166.646 105.455C166.555 105.305 157.64 89.8885 146.833 71.1964L127.183 37.2083H99.9303C84.9408 37.2083 72.6761 37.2116 72.6761 37.2165Z" fill="black"/>
<path d="M5.96493e-06 37.2611C0.00495138 37.2776 59.7422 140.769 63.359 147.03C64.0398 148.208 64.2112 148.498 64.5739 149.082C66.8356 152.72 69.3809 155.677 72.1981 157.941C75.2609 160.402 78.6469 161.963 82.0312 162.474C83.0582 162.629 83.8742 162.683 84.916 162.669C85.582 162.659 85.8178 162.647 86.3914 162.589C89.8565 162.25 93.3084 160.837 96.4718 158.463C98.5324 156.917 100.479 154.973 102.284 152.659C103.282 151.38 104.253 149.957 105.164 148.436C105.299 148.211 106.193 146.673 107.151 145.018C108.108 143.363 109.58 140.82 110.423 139.364L111.954 136.718L111.928 136.667C111.913 136.639 98.9907 114.256 83.2099 86.9279L54.5182 37.2413H27.2542C5.4515 37.2413 -0.00658792 37.2463 5.96493e-06 37.2611Z" fill="black"/>
</g>
<defs>
<clipPath id="clip0_149_2">
<rect width="200" height="200" fill="white"/>
</clipPath>
</defs>
</svg>
