<svg width="92" height="42" viewBox="0 0 92 42" fill="none" xmlns="http://www.w3.org/2000/svg">
<path d="M17.0929 31.3846C11.1858 23.0518 0 0 0 0H92V42H44.2404C26.9809 42 23 39.7174 17.0929 31.3846Z" fill="#FFDD00"/>
<path d="M66.8581 30.5H43.8919C43.025 30.5 42.3125 29.7875 42.3125 28.9206V17.8294C42.3125 16.9625 43.025 16.25 43.8919 16.25H66.87C67.7369 16.25 68.4494 16.9625 68.4494 17.8294V28.9206C68.4494 29.7875 67.7369 30.5 66.87 30.5H66.8581ZM44.6875 28.125H66.0625V18.625H44.6875V28.125ZM57.75 23.375C57.75 22.0687 56.6813 21 55.375 21C54.0687 21 53 22.0687 53 23.375C53 24.6813 54.0687 25.75 55.375 25.75C56.6813 25.75 57.75 24.6813 57.75 23.375ZM49.9719 23.9688V22.7812C49.9719 22.4487 49.7106 22.1875 49.3781 22.1875H48.1906C47.8581 22.1875 47.5969 22.4487 47.5969 22.7812V23.9688C47.5969 24.3013 47.8581 24.5625 48.1906 24.5625H49.3781C49.7106 24.5625 49.9719 24.3013 49.9719 23.9688ZM63.1531 23.9688V22.7812C63.1531 22.4487 62.8919 22.1875 62.5594 22.1875H61.3719C61.0394 22.1875 60.7781 22.4487 60.7781 22.7812V23.9688C60.7781 24.3013 61.0394 24.5625 61.3719 24.5625H62.5594C62.8919 24.5625 63.1531 24.3013 63.1531 23.9688ZM41.125 23.375H39.9375V13.875H61.3125V15.0625H63.6875V13.0794C63.6875 12.2125 62.975 11.5 62.1081 11.5H39.1419C38.275 11.5 37.5625 12.2125 37.5625 13.0794V24.1706C37.5625 25.0375 38.275 25.75 39.1419 25.75H41.125V23.375Z" fill="black"/>
</svg>
